<?xml version="1.0" standalone="no"?>
<!DOCTYPE svg PUBLIC "-//W3C//DTD SVG 20010904//EN"
 "http://www.w3.org/TR/2001/REC-SVG-20010904/DTD/svg10.dtd">
<svg version="1.0" xmlns="http://www.w3.org/2000/svg"
 width="2667.000000pt" height="2667.000000pt" viewBox="0 0 2667.000000 2667.000000"
 preserveAspectRatio="xMidYMid meet">
<metadata>
<!-- Created by potrace 1.14, written by Peter Selinger 2001-2017 -->
</metadata>
<g transform="translate(0.000000,2667.000000) scale(0.100000,-0.100000)"
fill="#000000" stroke="none">
<path d="M3584 17064 c-76 -97 -144 -181 -149 -188 -11 -12 -273 -339 -520
-651 -88 -110 -167 -209 -176 -220 -9 -11 -76 -94 -148 -185 -172 -218 -748
-940 -766 -963 -8 -9 -15 -21 -15 -26 0 -5 91 -8 202 -8 l201 1 60 76 c64 81
105 132 134 168 l18 22 692 -2 692 -3 -90 -110 c-50 -60 -94 -118 -99 -127 -9
-15 5 -16 164 -17 l174 0 45 57 c25 31 53 67 63 79 11 12 37 44 59 72 l40 51
433 0 c377 0 433 -2 429 -15 -4 -8 -47 -65 -96 -127 -50 -62 -92 -117 -93
-123 -2 -6 52 -10 147 -10 l150 -1 31 34 32 33 22 -28 22 -28 166 -2 c92 -1
170 -2 174 -2 4 -1 -14 -20 -40 -43 -26 -24 -73 -69 -105 -101 l-58 -59 -1912
-2 -1912 -2 -80 -27 c-96 -32 -181 -86 -260 -164 -127 -126 -172 -240 -182
-467 l-6 -129 61 6 c74 6 86 -4 83 -71 -4 -107 -4 -140 2 -194 4 -31 13 -72
20 -91 39 -93 189 -170 402 -207 39 -7 75 -14 81 -15 6 -2 14 -17 17 -34 7
-35 163 -197 237 -247 75 -51 180 -86 295 -100 33 -3 69 -8 80 -10 25 -5 336
-5 390 0 22 3 74 7 115 10 99 8 163 15 228 25 l53 8 38 -56 c124 -180 404
-366 764 -507 48 -19 93 -31 100 -28 7 4 9 4 6 0 -4 -4 6 -21 22 -39 43 -47
38 -57 -28 -58 -32 -1 -78 -2 -103 -4 -25 -1 -106 -6 -180 -10 -74 -4 -162 -9
-195 -10 -33 -2 -114 -7 -180 -10 -66 -3 -151 -8 -190 -10 -38 -2 -126 -7
-195 -10 -69 -3 -152 -7 -185 -10 -33 -2 -116 -7 -185 -10 -69 -3 -154 -8
-190 -11 -36 -2 -114 -7 -175 -9 -117 -5 -210 -10 -395 -21 -167 -10 -191 -8
-337 29 -84 21 -134 29 -136 22 -2 -5 -4 -122 -4 -259 l-1 -249 117 -181 c65
-100 238 -367 387 -594 148 -227 274 -420 279 -430 6 -10 26 -42 46 -72 137
-209 231 -354 236 -367 4 -11 20 -13 82 -7 42 3 78 7 81 9 3 2 41 6 85 10 44
4 82 9 85 10 3 2 33 6 65 10 33 4 89 11 125 15 64 9 69 8 278 -61 l214 -71
111 2 c62 1 146 3 187 5 41 2 161 6 265 10 105 4 233 8 285 10 52 2 174 6 270
10 96 3 214 8 261 10 48 2 178 7 290 11 198 7 286 11 302 13 4 0 -25 36 -65
78 -95 100 -119 125 -268 283 -69 73 -141 150 -160 170 -79 84 -281 298 -320
340 -23 25 -97 103 -163 174 -203 216 -197 206 -107 159 102 -54 291 -140 370
-169 116 -41 335 -96 489 -120 18 -3 43 -7 54 -10 12 -2 39 -6 62 -9 22 -3 65
-10 95 -15 30 -5 82 -12 115 -15 33 -4 74 -8 90 -10 17 -2 61 -7 99 -10 38 -4
83 -8 100 -11 196 -26 926 -26 1196 1 19 2 76 6 125 10 50 3 101 8 115 10 14
2 57 6 95 10 73 6 110 10 185 20 25 3 61 8 80 10 19 2 53 6 75 9 22 3 63 8 90
11 28 3 77 10 110 15 33 5 80 12 105 15 25 3 70 10 100 15 79 14 268 41 315
46 40 4 326 48 388 60 17 3 41 7 52 9 45 7 152 25 175 31 14 3 39 7 55 10 47
8 303 72 380 95 120 35 419 132 435 141 8 4 60 24 115 44 334 121 613 319 768
546 28 42 59 76 67 76 20 -1 121 12 140 17 8 2 40 7 70 10 30 3 66 8 80 10 14
2 45 7 70 10 25 3 56 8 70 10 38 6 260 36 305 41 22 3 74 10 115 15 41 6 91
13 110 15 19 3 44 6 55 9 11 2 47 7 80 10 33 4 89 11 125 16 35 6 85 12 110
15 25 2 52 6 60 9 8 2 39 7 69 10 30 4 61 8 70 10 9 1 45 6 81 10 36 4 74 9
85 11 11 2 63 9 115 16 52 6 98 14 102 17 4 3 -21 27 -55 52 -455 338 -454
338 -499 334 -24 -2 -104 -6 -178 -10 -74 -3 -162 -8 -195 -10 -89 -6 -234
-14 -375 -20 -69 -3 -152 -8 -185 -10 -204 -14 -303 -16 -309 -6 -4 6 -14 37
-22 68 -34 132 -128 277 -269 418 -107 108 -127 124 -225 192 -109 74 -190
122 -328 193 -77 40 -122 69 -122 79 -2 67 -37 260 -71 390 -69 262 -221 571
-390 796 -37 50 -278 371 -534 715 -256 344 -471 632 -478 640 -7 9 -32 41
-56 73 -24 31 -46 57 -50 58 -14 1 -54 10 -201 43 -85 19 -166 37 -180 40 -26
5 -134 29 -210 47 -81 19 -346 77 -390 85 -13 3 -60 14 -105 24 -45 10 -92 21
-105 24 -54 11 -123 26 -465 102 -115 25 -221 48 -235 50 -14 3 -41 9 -60 14
-19 5 -48 12 -65 14 -16 3 -39 8 -50 10 -34 8 -388 86 -430 95 -22 5 -94 21
-160 36 -66 15 -131 29 -145 31 -14 3 -41 9 -60 14 -19 5 -46 11 -60 14 -14 2
-45 9 -70 15 -25 5 -56 12 -70 15 -14 2 -47 10 -75 16 -27 6 -61 14 -75 16
-14 3 -74 16 -135 30 -60 13 -119 26 -130 29 -11 2 -105 22 -210 45 -104 23
-197 43 -205 45 -63 13 -465 102 -590 130 -85 19 -160 35 -166 35 -6 0 -73
-79 -150 -176z m435 -704 c138 -173 251 -317 251 -320 0 -3 -244 -6 -542 -5
-299 0 -542 4 -541 8 1 4 122 159 269 343 l267 336 23 -24 c12 -13 135 -165
273 -338z m286 266 c17 -3 152 -26 300 -51 149 -26 287 -49 308 -52 20 -3 37
-8 37 -10 0 -5 -98 -132 -110 -143 -3 -3 -50 -60 -104 -127 -54 -68 -102 -123
-107 -123 -4 0 -94 109 -200 243 -106 133 -199 251 -208 261 -15 18 -15 19 19
13 19 -4 49 -9 65 -11z m1372 -717 c11 -14 3 -29 -67 -117 -57 -72 -87 -102
-103 -103 -135 -5 -540 0 -546 7 -9 11 -130 163 -144 181 -7 10 102 153 330
433 6 8 33 41 58 72 l47 57 205 -257 c113 -141 212 -264 220 -273z m207 446
c82 -14 151 -26 152 -28 1 -1 -16 -25 -39 -54 -23 -28 -58 -71 -77 -97 -19
-25 -38 -45 -41 -46 -3 0 -28 33 -56 73 -28 39 -70 98 -93 130 -38 53 -40 57
-18 53 12 -3 90 -17 172 -31z m516 -187 c44 -57 86 -110 93 -118 7 -8 64 -80
127 -160 63 -80 120 -151 127 -158 7 -7 13 -16 13 -19 0 -3 -53 -72 -117 -153
-94 -118 -126 -151 -157 -164 -22 -9 -40 -15 -41 -13 -1 1 -78 99 -171 217
-234 296 -248 315 -231 332 7 7 49 58 92 113 44 55 88 109 98 120 10 11 33 39
50 62 18 23 33 43 34 43 0 0 38 -46 83 -102z m400 31 c36 -6 74 -13 86 -14 11
-2 46 -8 76 -14 50 -11 85 -16 126 -20 6 0 12 -5 12 -10 0 -5 -40 -58 -88
-119 l-89 -111 -39 52 c-21 29 -41 54 -44 57 -9 8 -136 174 -144 188 -6 9 -2
11 16 8 12 -3 52 -11 88 -17z m602 -156 c25 -32 55 -69 67 -83 11 -14 24 -29
28 -35 54 -69 120 -152 128 -161 5 -6 22 -26 37 -45 14 -19 40 -51 57 -73 17
-21 31 -42 31 -45 0 -3 -60 -6 -133 -7 -121 0 -221 -6 -367 -19 l-55 -5 -50
65 c-27 37 -56 73 -63 81 -8 8 -12 20 -10 27 3 16 270 355 279 356 3 1 26 -25
51 -56z m399 -17 c19 -2 104 -16 189 -31 85 -15 160 -28 167 -29 7 -1 15 -4
17 -7 3 -3 -36 -56 -86 -119 -50 -63 -96 -123 -103 -134 -17 -23 -22 -19 -76
51 -24 32 -46 60 -49 63 -12 11 -170 219 -170 223 0 3 17 1 39 -4 21 -5 53
-10 72 -13z m656 -183 c34 -43 70 -89 82 -103 58 -72 201 -253 201 -255 0 -1
-78 -1 -172 1 -148 2 -187 6 -268 28 -52 14 -115 28 -140 32 -25 4 -48 9 -53
11 -4 2 13 30 39 61 25 31 51 64 57 72 7 8 50 63 97 122 47 60 88 108 91 108
3 0 33 -35 66 -77z m-4097 -69 c0 -2 -25 -33 -56 -71 -30 -37 -67 -83 -82
-102 -15 -18 -31 -38 -37 -45 -5 -6 -45 -55 -88 -108 -43 -54 -85 -98 -95 -99
-22 0 -1297 0 -1340 0 l-32 1 161 203 c89 111 167 207 174 212 9 7 242 11 704
11 380 -1 691 -1 691 -2z m310 -243 c9 -1 23 -13 32 -28 9 -16 27 -39 40 -53
13 -14 36 -42 52 -62 l28 -38 -23 0 c-184 -4 -413 -2 -411 4 1 3 2 10 2 14 0
5 8 17 18 28 9 10 34 40 55 66 21 26 44 53 51 60 11 12 62 15 156 9z m720 -4
c0 -7 -91 -126 -130 -169 -14 -15 -21 -9 -83 68 -37 47 -70 90 -73 97 -3 9 32
12 141 12 80 0 145 -3 145 -8z m692 -128 c59 -74 108 -136 108 -139 0 -3 -15
-14 -32 -25 -125 -72 -332 -217 -456 -319 -42 -34 -76 -55 -81 -50 -45 50
-204 260 -205 271 0 7 68 100 153 206 l154 192 126 -1 126 -1 107 -134z m2785
-69 c35 -44 60 -80 57 -80 -3 0 -37 18 -77 39 -40 22 -108 58 -152 80 l-80 40
95 0 95 1 62 -80z m-3797 -1124 c0 -2 -8 -10 -17 -17 -16 -13 -17 -12 -4 4 13
16 21 21 21 13z m-60 -85 c-5 -11 -15 -23 -21 -27 -6 -3 -3 5 6 20 20 30 30
35 15 7z m-39 -64 c-10 -9 -11 -8 -5 6 3 10 9 15 12 12 3 -3 0 -11 -7 -18z
m-41 -67 c-6 -11 -13 -20 -16 -20 -2 0 0 9 6 20 6 11 13 20 16 20 2 0 0 -9 -6
-20z m5047 -1802 c-3 -7 -5 -2 -5 12 0 14 2 19 5 13 2 -7 2 -19 0 -25z m23
-93 c0 -5 -5 -3 -10 5 -5 8 -10 20 -10 25 0 6 5 3 10 -5 5 -8 10 -19 10 -25z
m-5335 -455 c10 -11 16 -20 13 -20 -3 0 -13 9 -23 20 -10 11 -16 20 -13 20 3
0 13 -9 23 -20z m105 -77 c0 -7 -39 17 -46 28 -3 6 5 3 20 -6 14 -10 26 -19
26 -22z m4810 -157 c0 -2 -7 -7 -16 -10 -8 -3 -12 -2 -9 4 6 10 25 14 25 6z
m-50 -26 c-8 -5 -19 -10 -25 -10 -5 0 -3 5 5 10 8 5 20 10 25 10 6 0 3 -5 -5
-10z m-50 -20 c-8 -5 -19 -10 -25 -10 -5 0 -3 5 5 10 8 5 20 10 25 10 6 0 3
-5 -5 -10z m-80 -30 c-8 -5 -19 -10 -25 -10 -5 0 -3 5 5 10 8 5 20 10 25 10 6
0 3 -5 -5 -10z"/>
<path d="M11119 15787 c-4 -49 -3 -1971 1 -1976 3 -5 64 -8 135 -7 l130 1 1
996 2 996 -134 0 c-94 1 -134 -2 -135 -10z"/>
<path d="M18620 15659 l0 -139 125 0 125 0 0 139 0 139 -125 0 -125 0 0 -139z"/>
<path d="M12378 15284 c-109 -25 -227 -102 -289 -188 -18 -25 -34 -44 -37 -42
-2 3 -5 49 -5 103 l-2 98 -105 1 c-58 0 -110 -1 -115 -3 -7 -2 -10 -249 -9
-721 1 -394 2 -720 3 -723 0 -3 54 -5 119 -5 l117 1 2 55 c2 30 4 235 6 455 2
220 6 411 10 424 30 112 67 181 128 241 67 65 138 92 244 93 133 0 221 -42
262 -124 45 -89 46 -110 47 -639 l1 -505 123 -1 122 0 0 527 c0 585 -4 632
-61 739 -95 179 -328 267 -561 214z"/>
<path d="M15225 15285 c-134 -24 -227 -74 -330 -179 -137 -138 -204 -322 -209
-569 -7 -310 79 -523 266 -660 162 -119 452 -147 668 -64 133 50 232 141 298
272 33 66 65 164 54 166 -4 1 -58 2 -120 3 l-112 1 -11 -35 c-34 -109 -160
-218 -274 -236 -146 -23 -290 9 -372 84 -68 62 -128 202 -135 318 l-3 58 520
1 c286 1 525 3 530 3 11 2 12 133 1 227 -33 292 -209 528 -446 600 -71 21
-235 27 -325 10z m303 -240 c122 -55 198 -178 217 -352 l6 -53 -404 0 -404 0
4 43 c21 186 158 354 316 387 79 17 197 5 265 -25z"/>
<path d="M16863 15284 c-57 -17 -113 -48 -154 -86 -45 -42 -116 -132 -124
-158 -14 -45 -21 -14 -20 91 0 61 -2 114 -5 117 -3 4 -56 7 -117 8 l-113 0 0
-726 0 -726 122 0 123 1 1 435 c1 475 4 507 61 613 64 117 202 188 355 183
l48 -1 0 122 c0 112 -2 123 -20 133 -24 13 -103 9 -157 -6z"/>
<path d="M17628 15295 c-1 -1 -25 -6 -51 -9 -145 -20 -292 -116 -350 -231 -29
-58 -45 -143 -42 -224 5 -143 67 -234 200 -297 60 -29 214 -76 292 -90 14 -3
68 -15 121 -28 254 -63 299 -97 289 -224 -11 -142 -121 -212 -337 -217 -137
-2 -271 48 -319 120 -25 38 -60 127 -61 157 0 14 -15 16 -115 16 -63 0 -117
-3 -119 -7 -2 -3 3 -42 11 -85 42 -243 197 -374 476 -404 155 -16 301 -3 408
37 144 55 244 156 284 287 8 27 15 88 16 135 0 141 -52 243 -156 305 -49 28
-151 71 -186 78 -13 2 -62 14 -109 26 -47 12 -95 24 -106 26 -61 11 -215 55
-254 72 -25 11 -55 29 -67 40 -58 57 -52 173 13 233 58 54 106 69 230 74 201
8 324 -70 358 -225 5 -25 6 -25 118 -25 128 0 121 -6 101 93 -36 179 -178 310
-379 352 -69 14 -255 25 -266 15z"/>
<path d="M19675 15284 c-222 -46 -403 -215 -480 -449 -47 -141 -56 -395 -20
-540 92 -367 387 -572 754 -522 270 36 473 230 546 522 20 81 29 301 15 385
-19 112 -22 126 -51 198 -78 198 -237 346 -425 398 -81 22 -252 26 -339 8z
m284 -219 c131 -46 241 -193 267 -355 3 -19 9 -53 13 -75 11 -62 4 -210 -14
-291 -31 -141 -120 -275 -212 -323 -130 -66 -288 -58 -405 19 -151 100 -226
336 -194 615 25 214 143 375 306 419 66 17 178 14 239 -9z"/>
<path d="M21325 15280 c-109 -31 -193 -88 -268 -180 l-42 -52 -5 104 -5 104
-112 -1 -113 0 0 -725 0 -726 113 1 c61 1 117 3 122 3 6 1 10 149 10 420 1
229 4 442 8 473 22 185 143 338 288 365 190 35 330 -29 372 -169 25 -83 26
-107 27 -613 l0 -480 122 0 122 1 0 515 c-1 530 -3 591 -28 672 -44 147 -169
260 -323 293 -69 15 -229 12 -288 -5z"/>
<path d="M22770 15279 c-249 -63 -414 -239 -484 -514 -39 -155 -39 -368 0
-520 64 -247 230 -412 469 -466 74 -16 258 -14 343 4 153 33 287 124 365 247
32 51 87 186 87 213 0 9 -33 12 -117 12 l-118 0 -15 -40 c-26 -67 -47 -100
-89 -138 -78 -70 -188 -107 -305 -101 -187 10 -313 111 -361 289 -13 50 -15
58 -21 120 l-6 60 526 -1 527 0 6 24 c7 30 -5 229 -17 271 -5 17 -7 31 -5 31
7 0 -44 140 -70 191 -84 167 -236 289 -406 324 -85 18 -225 15 -309 -6z m265
-211 c104 -25 184 -87 232 -182 26 -51 63 -210 55 -233 -3 -10 -93 -13 -403
-13 l-399 0 0 23 c0 12 7 49 15 81 56 213 203 336 400 335 33 -1 78 -5 100
-11z"/>
<path d="M24220 15285 c-161 -33 -272 -104 -337 -215 -73 -122 -69 -323 6
-427 52 -72 174 -138 316 -169 33 -8 76 -18 95 -24 19 -5 85 -21 145 -35 245
-57 300 -98 291 -216 -6 -72 -17 -97 -63 -141 -48 -46 -100 -67 -193 -77 -139
-15 -280 9 -350 59 -41 29 -81 95 -100 163 l-17 62 -117 2 -116 1 5 -41 c21
-180 96 -308 219 -377 67 -38 138 -59 246 -74 450 -61 750 142 727 490 -10
146 -66 227 -201 293 -61 30 -143 55 -329 101 -345 85 -393 114 -384 237 9
131 134 200 338 188 162 -9 272 -87 294 -208 4 -20 12 -38 19 -38 6 -1 57 -2
114 -3 l102 -2 0 26 c0 47 -28 145 -55 193 -65 115 -208 211 -348 232 -79 13
-246 12 -307 0z"/>
<path d="M13210 15246 c0 -8 227 -622 281 -761 11 -27 72 -192 137 -365 l118
-315 127 -1 c80 0 130 3 136 10 4 6 43 106 86 221 43 116 86 233 97 260 10 28
29 79 42 115 28 77 170 458 254 683 33 86 59 158 58 158 0 1 -60 2 -133 3
l-132 2 -10 -26 c-6 -14 -64 -185 -130 -380 -65 -195 -151 -449 -190 -564 -39
-115 -71 -212 -71 -215 -1 -9 -98 284 -299 904 -45 138 -85 257 -90 265 -7 12
-34 15 -145 15 -78 1 -136 -3 -136 -9z"/>
<path d="M18624 15245 c-1 -5 -2 -332 -1 -725 l2 -715 110 -1 c61 0 115 1 121
3 8 3 11 209 10 726 l-1 722 -119 0 c-74 1 -119 -3 -122 -10z"/>
<path d="M19725 12639 c-124 -15 -252 -79 -315 -160 -58 -72 -82 -144 -85
-248 -3 -111 12 -163 66 -225 33 -37 141 -101 187 -111 93 -20 433 -109 477
-126 70 -26 120 -69 135 -115 29 -87 -2 -198 -68 -245 -117 -83 -367 -91 -513
-17 -91 47 -143 118 -158 218 l-6 45 -89 2 -88 1 7 -66 c11 -113 64 -218 143
-288 45 -39 133 -82 217 -105 152 -43 412 -24 526 38 117 62 195 160 214 268
24 133 -12 271 -91 348 -60 60 -150 96 -379 152 -377 94 -400 108 -400 245 0
56 4 73 28 108 50 76 128 111 261 117 206 9 331 -69 375 -233 l12 -42 79 0
c44 0 82 5 85 10 13 20 -26 157 -59 212 -100 166 -307 246 -561 217z"/>
<path d="M13157 12596 c-1 -6 -3 -319 -2 -696 l0 -685 350 0 c306 1 358 3 415
19 131 36 223 109 274 216 26 55 31 79 33 155 2 97 -6 134 -49 205 -30 50 -65
81 -143 125 l-53 30 42 29 c91 62 146 175 140 290 -6 146 -82 244 -230 298
-56 20 -77 22 -416 23 -251 1 -358 -1 -361 -9z m678 -166 c94 -30 134 -80 141
-172 7 -106 -44 -191 -135 -224 -60 -21 -487 -31 -493 -11 -4 10 -3 364 1 408
1 13 28 15 224 14 149 -1 236 -6 262 -15z m33 -587 c73 -19 116 -45 142 -88
25 -41 32 -66 31 -125 -2 -140 -63 -217 -191 -244 -41 -8 -141 -12 -284 -12
l-221 1 0 230 c-1 127 1 236 3 243 7 19 442 15 520 -5z"/>
<path d="M21541 12530 c-67 -174 -287 -755 -332 -875 -26 -71 -75 -200 -107
-285 l-59 -155 90 -3 c64 -2 94 1 102 10 7 7 27 56 46 108 18 52 49 138 68
190 l36 95 277 1 277 0 10 -25 c32 -86 131 -370 131 -377 0 -2 45 -3 100 -3
55 0 100 4 100 9 0 4 -17 57 -39 117 -177 497 -232 651 -240 668 -5 11 -51
137 -101 280 -51 143 -98 274 -105 292 l-13 31 -106 -1 -106 -1 -29 -76z m189
-305 c28 -82 58 -170 67 -195 8 -25 19 -54 23 -65 8 -19 60 -175 60 -180 0 -1
-97 -2 -216 -3 l-216 0 7 26 c3 15 31 92 60 172 30 80 75 205 101 278 26 73
51 129 55 125 3 -5 30 -75 59 -158z"/>
<path d="M14826 12245 c-62 -22 -114 -63 -161 -127 l-45 -60 1 58 c3 120 10
111 -81 111 l-80 1 0 -509 0 -509 85 0 85 0 1 283 c1 316 3 346 24 408 38 108
146 178 266 174 l36 -1 -1 88 c0 53 -4 88 -11 89 -51 6 -88 4 -119 -6z"/>
<path d="M16377 12253 c-2 -1 -21 -5 -43 -9 -64 -10 -160 -61 -198 -106 -38
-44 -72 -122 -78 -178 l-3 -35 76 -2 76 -2 16 53 c28 88 100 136 211 141 98 4
186 -28 221 -81 21 -32 30 -111 16 -147 -16 -40 -58 -54 -231 -76 -206 -27
-206 -27 -278 -63 -109 -54 -156 -136 -155 -268 0 -72 4 -93 26 -136 51 -101
146 -155 275 -157 78 -1 131 6 190 27 51 18 149 82 165 108 14 22 27 23 27 3
0 -31 41 -95 70 -110 44 -23 104 -28 158 -16 l47 12 0 57 0 57 -47 5 c-26 3
-51 9 -55 14 -4 4 -10 164 -13 354 -5 300 -8 352 -23 385 -35 77 -126 143
-222 162 -39 8 -222 15 -228 8z m302 -632 c-1 -90 -4 -104 -31 -151 -50 -88
-157 -141 -283 -142 -117 -1 -178 55 -179 164 -1 69 20 103 85 136 45 22 143
44 251 56 31 4 76 13 100 20 23 8 47 14 51 15 4 1 7 -44 6 -98z"/>
<path d="M17521 12243 c-65 -17 -125 -57 -178 -117 l-39 -45 0 72 1 72 -82 2
-82 1 -1 -509 0 -509 85 0 c81 0 85 1 85 23 0 12 2 159 3 327 3 293 4 307 26
364 29 74 99 147 157 164 132 39 258 -11 285 -113 17 -61 18 -75 18 -432 l1
-333 85 0 85 0 0 388 c-1 361 -2 391 -21 447 -12 33 -32 75 -46 94 -31 40
-104 88 -156 102 -63 17 -168 18 -226 2z"/>
<path d="M15010 12152 c75 -210 202 -559 210 -577 5 -11 16 -40 24 -65 8 -25
38 -107 65 -183 l51 -137 -25 -63 c-61 -148 -121 -192 -230 -167 l-31 7 -1
-76 c-1 -49 2 -78 10 -83 21 -13 131 -9 186 8 104 30 174 137 276 419 20 55
49 134 65 175 16 41 87 235 159 430 71 195 133 363 136 372 6 15 -3 16 -88 15
l-94 -1 -137 -419 -138 -419 -29 88 c-16 49 -56 175 -90 279 -33 105 -82 253
-107 330 l-47 140 -96 2 -97 2 28 -77z"/>
<path d="M18269 11408 c-1 -7 -1 -53 -2 -103 l-1 -90 39 -2 c22 -1 46 -2 53
-2 10 -1 12 -14 8 -51 -7 -69 -31 -116 -69 -134 -33 -15 -33 -15 -28 -93 1
-16 62 9 108 45 67 50 89 125 92 310 l2 132 -100 0 c-74 0 -101 -3 -102 -12z"/>
<path d="M20648 11407 c-3 -7 -4 -52 -4 -102 l1 -90 102 -2 102 -3 -1 104 -1
104 -98 0 c-67 1 -99 -3 -101 -11z"/>
<path d="M22485 11407 c-2 -7 -3 -52 -2 -102 l2 -90 100 -2 101 -1 0 103 0
104 -99 -1 c-65 0 -100 -4 -102 -11z"/>
</g>
</svg>
