<?xml version="1.0" standalone="no"?>
<!DOCTYPE svg PUBLIC "-//W3C//DTD SVG 20010904//EN"
 "http://www.w3.org/TR/2001/REC-SVG-20010904/DTD/svg10.dtd">
<svg version="1.0" xmlns="http://www.w3.org/2000/svg"
 width="200.000000pt" height="200.000000pt" viewBox="0 0 200.000000 200.000000"
 preserveAspectRatio="xMidYMid meet">
<metadata>
</metadata>
<g transform="translate(0.000000,200.000000) scale(0.100000,-0.100000)"
fill="#000000" stroke="none">
<path d="M270 1293 c0 -5 -12 -22 -27 -39 -16 -17 -37 -43 -48 -58 -11 -15
-28 -37 -37 -48 -22 -26 -23 -38 -3 -38 8 0 15 3 15 8 0 4 11 12 25 19 16 7
23 7 18 0 -4 -6 2 -8 15 -5 12 3 29 0 39 -8 21 -16 37 -18 28 -4 -3 6 2 11 12
11 33 2 58 -3 64 -13 4 -6 14 -8 24 -5 9 4 13 3 10 -3 -3 -5 -72 -9 -157 -9
-131 0 -152 -3 -163 -18 -7 -9 -11 -24 -10 -32 2 -9 4 -19 4 -23 1 -4 17 -19
37 -34 25 -19 46 -27 72 -26 27 1 46 -6 67 -24 17 -14 24 -23 18 -19 -7 3 -13
0 -13 -7 0 -9 -3 -9 -10 2 -9 13 -10 13 -10 0 0 -13 -1 -13 -10 0 -9 13 -10
13 -10 0 0 -13 -1 -13 -10 0 -5 8 -10 10 -10 4 0 -5 -15 -10 -32 -11 -78 -1
-83 -4 -68 -43 1 -3 2 -8 1 -12 0 -5 3 -8 7 -8 4 0 20 -22 36 -48 26 -45 30
-48 74 -51 115 -6 172 -4 172 8 0 5 -13 23 -29 40 -23 25 -26 31 -12 31 10 0
21 -3 25 -7 9 -9 206 -12 206 -4 0 4 19 7 41 8 23 2 49 8 57 15 9 8 13 8 9 2
-8 -15 58 7 75 24 7 7 17 12 24 12 6 0 14 6 17 13 4 11 36 17 109 20 19 1 32
23 18 32 -18 11 -69 12 -74 1 -3 -8 -5 -8 -5 1 -1 6 -10 9 -21 6 -14 -4 -20 0
-20 10 0 9 -13 24 -30 34 -16 9 -30 25 -30 35 0 10 -4 18 -10 18 -5 0 -10 9
-10 19 0 11 -7 26 -15 35 -8 8 -15 20 -15 26 0 6 -4 8 -10 5 -5 -3 -10 0 -10
7 0 7 -16 31 -35 52 -19 22 -35 37 -35 34 0 -4 -15 -2 -32 3 -18 5 -44 11 -58
14 -14 3 -36 7 -50 10 -14 3 -45 10 -70 15 -25 6 -56 13 -70 16 -14 2 -33 7
-42 10 -10 3 -18 2 -18 -3z m40 -73 c0 -6 -16 -10 -37 -10 -35 0 -36 0 -18 20
13 15 22 17 36 9 11 -5 19 -14 19 -19z m50 21 c0 -9 -20 -37 -20 -29 0 3 -2
13 -5 21 -4 8 0 14 10 14 8 0 15 -3 15 -6z m35 -10 c-3 -6 2 -14 12 -19 14 -9
15 -13 4 -26 -10 -12 -18 -13 -32 -5 -18 9 -18 11 -3 34 15 23 33 37 19 16z
m98 -57 c-3 -7 -11 -10 -19 -7 -8 3 -12 9 -9 13 3 5 -1 11 -7 13 -10 4 -10 8
1 16 17 11 42 -15 34 -35z m56 30 c5 3 11 0 14 -8 11 -27 -21 -25 -39 2 -15
23 -15 25 -1 14 9 -8 20 -11 26 -8z m75 -18 c6 2 16 -4 23 -15 11 -18 11 -18
-17 -4 -16 8 -33 20 -36 26 -5 9 -4 9 6 0 7 -6 18 -9 24 -7z m-366 -4 c10 9
16 8 23 -3 6 -10 9 -10 9 -1 0 6 5 12 10 12 6 0 10 -7 10 -15 0 -8 -7 -15 -15
-15 -8 0 -15 -6 -15 -12 0 -9 -3 -9 -8 -3 -4 6 -15 11 -24 12 -49 2 -49 2 -36
17 8 9 17 11 22 5 6 -5 15 -4 24 3z m192 -26 c0 -7 -6 -19 -14 -25 -10 -9 -17
-7 -27 6 -8 9 -9 14 -3 10 7 -4 14 0 18 8 7 19 26 20 26 1z"/>
<path d="M834 1181 c4 -6 4 -11 -1 -11 -10 0 -8 -129 3 -138 4 -4 4 -1 0 6 -4
7 -1 12 7 12 9 0 15 10 15 25 0 13 -5 22 -10 19 -6 -4 -7 0 -1 12 13 29 10 77
-6 82 -8 3 -11 0 -7 -7z"/>
<path d="M1396 1178 c3 -5 10 -6 15 -3 13 9 11 12 -6 12 -8 0 -12 -4 -9 -9z"/>
<path d="M905 1145 c-17 -7 -27 -14 -23 -14 4 -1 3 -12 -2 -26 -6 -15 -6 -26
1 -30 5 -4 7 -10 4 -15 -3 -5 -1 -11 5 -15 10 -6 11 -3 14 50 1 23 6 31 24 33
14 2 22 -2 22 -11 0 -9 6 -18 13 -20 10 -4 10 -6 0 -6 -15 -1 -18 -51 -3 -51
6 0 11 3 11 8 7 36 5 59 -5 71 -9 12 -8 13 3 6 10 -5 12 -4 7 3 -15 24 -41 30
-71 17z"/>
<path d="M1140 1150 c-8 -5 -18 -6 -24 -3 -5 3 -6 1 -2 -5 4 -7 2 -12 -4 -12
-7 0 -9 -7 -6 -16 4 -10 2 -13 -6 -8 -8 5 -9 2 -4 -12 5 -10 9 -25 9 -31 0 -7
7 -13 14 -13 8 0 12 -4 9 -9 -6 -10 1 -9 45 3 22 6 26 13 25 42 -3 41 -34 78
-56 64z m34 -35 c4 -11 -2 -15 -24 -15 -22 0 -28 4 -24 15 4 8 14 15 24 15 10
0 20 -7 24 -15z m10 -42 c6 -15 -35 -25 -51 -11 -7 5 -11 14 -8 18 7 12 54 7
59 -7z"/>
<path d="M1266 1153 c-8 -8 -13 -9 -43 -12 -16 -1 -16 -3 -3 -11 8 -5 10 -10
4 -10 -16 0 -13 -28 4 -35 20 -7 30 4 13 14 -11 7 -9 11 6 20 12 6 23 17 27
26 6 16 3 19 -8 8z"/>
<path d="M1302 1148 c-15 -15 -16 -58 -2 -59 6 -1 15 -3 20 -4 6 -1 14 -3 19
-4 21 -3 17 -26 -5 -27 -13 -1 -24 1 -24 5 0 4 -7 8 -15 8 -21 0 -19 -10 5
-24 29 -19 70 0 70 32 0 14 -3 24 -7 23 -13 -3 -53 13 -53 21 0 18 14 20 31 5
12 -11 19 -12 24 -4 8 13 -14 32 -27 24 -4 -3 -8 0 -8 5 0 14 -13 14 -28 -1z"/>
<path d="M1495 1150 c-3 -5 -12 -7 -20 -4 -35 14 -56 -52 -30 -90 15 -20 65
-31 65 -14 0 5 5 6 10 3 20 -12 15 75 -6 91 -7 6 -11 14 -7 17 3 4 4 7 0 7 -3
0 -8 -4 -12 -10z m15 -55 c0 -22 -6 -38 -15 -41 -21 -8 -43 18 -40 47 3 31 1
29 30 29 22 0 25 -4 25 -35z"/>
<path d="M1687 1140 c-25 -24 -26 -79 -1 -93 25 -14 46 -15 61 -1 18 17 22 68
7 89 -8 10 -14 15 -14 9 0 -5 -5 -2 -10 6 -9 13 -10 13 -10 0 0 -10 -3 -11 -8
-4 -5 8 -13 6 -25 -6z m59 -45 c1 -19 -3 -32 -7 -29 -5 3 -9 0 -9 -5 0 -6 -7
-11 -15 -11 -8 0 -15 5 -15 11 0 5 -4 8 -8 5 -5 -3 -9 1 -9 8 0 8 10 12 24 10
14 -1 23 3 23 11 0 8 -7 11 -20 8 -16 -4 -19 -2 -14 11 3 9 16 16 28 16 17 0
21 -6 22 -35z"/>
<path d="M1825 1149 c6 -9 3 -11 -8 -6 -19 7 -39 -15 -31 -36 3 -9 19 -19 35
-22 16 -4 29 -11 29 -16 0 -14 -31 -24 -39 -13 -9 13 -31 16 -31 5 0 -25 56
-35 78 -14 13 12 17 54 5 51 -9 -3 -73 19 -73 24 0 2 14 5 30 6 17 1 30 -3 30
-8 0 -6 5 -8 10 -5 13 8 5 22 -22 36 -16 9 -19 8 -13 -2z"/>
<path d="M993 1130 c1 -11 5 -20 9 -20 4 0 8 -10 8 -23 0 -26 17 -47 39 -47 8
0 12 3 9 6 -4 3 0 21 8 40 8 19 11 34 7 34 -5 0 -2 4 6 9 9 6 10 11 2 15 -10
6 -31 -30 -31 -53 0 -5 -6 -14 -13 -20 -11 -8 -13 -6 -12 12 2 25 -14 67 -26
67 -4 0 -7 -9 -6 -20z"/>
<path d="M1397 1144 c-10 -10 -9 -52 2 -59 5 -3 12 -1 16 5 3 5 0 10 -7 10 -9
0 -10 3 -2 8 6 4 8 15 5 25 -4 10 -10 15 -14 11z"/>
<path d="M1564 1139 c-3 -5 -11 -6 -17 -3 -8 5 -8 3 1 -7 6 -7 12 -17 12 -22
0 -4 -6 -5 -12 -1 -10 6 -10 4 0 -8 7 -9 12 -20 11 -24 -1 -5 -1 -15 0 -23 1
-19 16 -4 17 17 1 10 2 27 3 40 1 15 7 22 21 22 11 0 21 -6 21 -12 1 -7 2 -25
3 -40 0 -16 5 -29 11 -30 14 -4 15 73 1 87 -14 14 -64 17 -72 4z"/>
<path d="M1223 1055 c0 -21 2 -23 13 -14 11 9 11 15 3 25 -15 19 -16 18 -16
-11z"/>
<path d="M1392 1053 c2 -22 4 -23 15 -7 17 23 16 31 -2 31 -9 0 -14 -9 -13
-24z"/>
<path d="M1465 949 c4 -5 1 -9 -5 -9 -6 0 -10 -10 -8 -22 2 -16 12 -24 32 -28
17 -3 29 -9 28 -15 -3 -12 -33 -14 -48 -3 -6 4 -11 2 -11 -7 0 -8 6 -15 14
-16 49 -4 56 -2 59 15 3 19 -18 47 -33 45 -27 -5 -33 2 -23 21 10 18 13 19 26
5 9 -8 20 -15 25 -15 6 0 3 7 -5 16 -17 17 -60 28 -51 13z"/>
<path d="M980 901 c0 -34 4 -51 15 -55 9 -3 15 0 15 9 0 8 -4 15 -8 15 -5 0
-9 7 -9 15 0 11 6 13 21 9 29 -9 39 -28 19 -35 -9 -3 -12 -8 -7 -12 6 -3 16
-2 24 3 7 4 19 6 26 3 15 -6 28 13 14 22 -6 4 -5 11 3 20 7 8 16 10 23 4 8 -6
13 -3 16 8 4 14 -1 18 -24 17 -15 0 -31 -4 -36 -9 -4 -5 -1 -5 6 -1 14 9 17
-10 2 -19 -6 -4 -8 -11 -5 -16 4 -5 -1 -9 -10 -9 -9 0 -13 5 -10 10 3 6 0 10
-7 10 -8 0 -9 3 -3 8 31 22 10 52 -37 52 -27 0 -28 -2 -28 -49z m56 28 c10
-16 -9 -28 -31 -19 -13 6 -15 9 -5 9 13 1 13 2 0 11 -12 8 -11 10 7 10 12 0
25 -5 29 -11z"/>
<path d="M1607 936 c-3 -7 -1 -19 4 -27 8 -13 13 -6 10 13 0 4 6 5 14 2 22 -9
18 3 -4 15 -14 8 -20 7 -24 -3z"/>
<path d="M1230 915 c5 -7 7 -15 3 -18 -3 -4 -1 -13 6 -21 9 -11 8 -15 -4 -20
-15 -5 -18 1 -18 37 0 9 -4 17 -9 17 -6 0 -8 -6 -5 -14 3 -7 1 -18 -4 -23 -5
-5 -1 -16 11 -26 11 -9 20 -12 20 -7 0 6 6 10 14 10 19 0 28 50 10 57 -8 3
-12 8 -9 12 2 4 -2 8 -10 8 -10 0 -12 -4 -5 -12z"/>
<path d="M1283 917 c-3 -5 -2 -11 1 -14 3 -3 1 -15 -5 -25 -8 -14 -8 -23 0
-31 11 -11 16 12 13 54 -1 12 4 15 18 12 14 -4 20 -14 20 -32 0 -18 5 -28 15
-28 10 0 12 4 4 13 -5 6 -9 16 -8 20 5 28 -3 39 -27 39 -14 0 -28 -4 -31 -8z"/>
<path d="M1157 895 c-13 -9 -17 -20 -12 -36 5 -14 2 -24 -6 -30 -7 -4 -11 -11
-7 -14 13 -13 39 28 33 52 -3 14 -2 22 4 19 5 -3 11 1 15 9 7 19 -3 19 -27 0z"/>
<path d="M1625 900 c-3 -5 -11 -7 -18 -5 -7 3 -17 -6 -24 -20 -12 -28 -2 -33
17 -10 11 13 15 13 21 3 7 -10 9 -10 9 0 0 6 5 12 10 12 6 0 9 -5 8 -11 -2 -6
3 -14 9 -16 10 -3 10 3 2 26 -11 31 -23 39 -34 21z"/>
<path d="M1686 857 c3 -10 9 -15 12 -12 3 3 0 11 -7 18 -10 9 -11 8 -5 -6z"/>
<path d="M1377 853 c-10 -9 -9 -23 1 -23 5 0 9 7 9 15 0 17 -1 18 -10 8z"/>
</g>
</svg>
